<svg version="1.1" id="Layer_1" xmlns="http://www.w3.org/2000/svg" xmlns:xlink="http://www.w3.org/1999/xlink" x="0px" y="0px" viewBox="0 0 512 512" style="enable-background:new 0 0 512 512;" xml:space="preserve">
<circle style="fill:#4CAF50;" cx="256" cy="256" r="256"/>
<g>
	<path style="fill:#FFFFFF;" d="M177.306,325.043c0,0-1.69-42.969-4.225-58.122c-2.535-15.152-10.146-47.115-10.146-47.115
		s0.845,0,0,0s-7.607,31.963-10.146,47.115c-2.535,15.152-4.225,58.122-4.225,58.122s6.762,11.387,14.297,11.387
		C170.545,336.43,177.306,325.043,177.306,325.043z"/>
	<path style="fill:#FFFFFF;" d="M163.062,219.806c0,0-32.808-23.349-44.195-32.808c-11.391-9.463-32.808-33.653-32.808-33.653
		s0.845,0.845,0,0s21.418,24.19,32.808,33.653c11.391,9.463,44.195,32.808,44.195,32.808s12.236-4.225,17.307,0.845
		C175.297,225.727,163.062,219.806,163.062,219.806z"/>
	<path style="fill:#FFFFFF;" d="M163.062,219.806c0,0,20.573-35.343,28.18-47.96c7.607-12.612,21.418-42.973,21.418-42.973
		s0,0.845,0,0s-13.816,30.357-21.418,42.973s-28.18,47.96-28.18,47.96s3.38,11.391-2.535,15.616
		C154.61,231.197,163.062,219.806,163.062,219.806z"/>
	<path style="fill:#FFFFFF;" d="M163.062,219.806c0,0,34.498,16.461,47.96,21.418c13.457,4.961,49.646,11.391,49.646,11.391
		s-0.845,0,0,0s-36.189-6.434-49.646-11.391c-13.462-4.961-47.96-21.418-47.96-21.418s-7.607,9.463-13.462,7.607
		C155.455,226.567,163.062,219.806,163.062,219.806z"/>
	<path style="fill:#FFFFFF;" d="M163.062,219.806c0,0,4.225-40.433,5.07-54.249s1.69-50.495,1.69-50.495s0,0.845,0,0
		s-0.845,36.674-1.69,50.495c-0.845,13.816-5.07,54.249-5.07,54.249s8.452,8.452,5.916,13.462
		C166.443,228.253,163.062,219.806,163.062,219.806z"/>
</g>
<g>
	<path style="fill:#FFFFFF;" d="M348.694,345.62c0,0-1.69-42.973-4.225-58.122c-2.535-15.152-10.146-47.115-10.146-47.115
		s0.845,0,0,0s-7.607,31.963-10.146,47.115s-4.225,58.122-4.225,58.122s6.762,11.391,14.297,11.391
		C341.932,357.012,348.694,345.62,348.694,345.62z"/>
	<path style="fill:#FFFFFF;" d="M334.449,240.383c0,0-32.808-23.349-44.195-32.808c-11.391-9.459-32.808-33.653-32.808-33.653
		s0.845,0.845,0,0s21.418,24.194,32.808,33.653c11.391,9.459,44.195,32.808,44.195,32.808s12.236-4.225,17.307,0.845
		C346.684,246.304,334.449,240.383,334.449,240.383z"/>
	<path style="fill:#FFFFFF;" d="M334.449,240.383c0,0,20.573-35.343,28.18-47.96c7.607-12.612,21.418-42.969,21.418-42.969
		s0,0.845,0,0s-13.816,30.357-21.418,42.969s-28.18,47.96-28.18,47.96s3.38,11.391-2.535,15.616
		C325.997,251.774,334.449,240.383,334.449,240.383z"/>
	<path style="fill:#FFFFFF;" d="M334.449,240.383c0,0,34.498,16.461,47.96,21.418c13.457,4.961,49.646,11.391,49.646,11.391
		s-0.845,0,0,0s-36.189-6.434-49.646-11.391c-13.462-4.961-47.96-21.418-47.96-21.418s-7.607,9.463-13.462,7.607
		S334.449,240.383,334.449,240.383z"/>
	<path style="fill:#FFFFFF;" d="M334.449,240.383c0,0,4.225-40.433,5.07-54.249s1.69-50.495,1.69-50.495s0,0.845,0,0
		s-0.845,36.674-1.69,50.495s-5.07,54.249-5.07,54.249s8.452,8.452,5.916,13.462C337.831,248.835,334.449,240.383,334.449,240.383z"
		/>
</g>
<path style="fill:#FFFFFF;" d="M411.282,383.256H100.722c0,0,0-20.573,67.584-20.573s67.584,20.573,67.584,20.573
	s0-20.573,67.584-20.573C371.054,362.683,411.282,383.256,411.282,383.256z"/>
</svg>
